<?xml version="1.0" standalone="no"?>
<!DOCTYPE svg PUBLIC "-//W3C//DTD SVG 20010904//EN"
 "http://www.w3.org/TR/2001/REC-SVG-20010904/DTD/svg10.dtd">
<svg version="1.0" xmlns="http://www.w3.org/2000/svg"
 width="316.000000pt" height="341.000000pt" viewBox="0 0 316.000000 341.000000"
 preserveAspectRatio="xMidYMid meet">

<g transform="translate(0.000000,341.000000) scale(0.100000,-0.100000)"
fill="#000000" stroke="none">
<path d="M440 3399 c-201 -28 -365 -172 -415 -364 -13 -52 -15 -233 -15 -1450
0 -949 3 -1402 11 -1428 6 -21 26 -56 45 -77 97 -107 273 -87 344 40 l25 45 3
1387 2 1387 26 20 c15 12 32 21 38 21 6 0 501 -283 1101 -629 787 -454 1094
-636 1105 -655 29 -51 16 -61 -500 -358 -1065 -613 -1009 -582 -1048 -581 -81
2 -122 105 -64 161 15 15 157 101 315 192 247 140 296 172 342 222 182 197
178 498 -9 683 -50 49 -121 95 -381 245 -408 234 -457 260 -503 260 -126 0
-221 -92 -222 -214 0 -55 27 -120 63 -153 12 -12 180 -112 372 -223 193 -111
358 -209 368 -217 24 -22 21 -66 -5 -90 -13 -11 -148 -91 -302 -179 -153 -87
-298 -175 -321 -196 -136 -120 -203 -333 -161 -512 45 -192 202 -350 391 -396
111 -26 258 -9 360 42 68 35 1498 859 1542 889 115 79 203 252 203 399 0 147
-88 320 -203 399 -23 15 -532 311 -1132 657 -705 407 -1113 636 -1155 650 -79
26 -147 33 -220 23z"/>
</g>
</svg>
